Coordinates
version=1
nRows=20
nColumns=33
inDegrees=yes

Units are S.I. units (second, meters, Newtons, ...)
Angles are in degrees.

endheader
time	ground_thorax_rot_x	ground_thorax_rot_y	ground_thorax_rot_z	ground_thorax_tx	ground_thorax_ty	ground_thorax_tz	clav_prot_r	clav_elev_r	scapula_abduction_r	scapula_elevation_r	scapula_upward_rot_r	scapula_winging_r	shoulder_elv_r	plane_of_elev_r	axial_rot_r	elbow_flexion_r	pro_sup_r	wrist_flex_r	wrist_dev_r	clav_prot_l	clav_elev_l	scapula_abduction_l	scapula_elevation_l	scapula_upward_rot_l	scapula_winging_l	shoulder_elv_l	plane_of_elev_l	axial_rot_l	elbow_flexion_l	pro_sup_l	wrist_flex_l	wrist_dev_l	
9.2600	39.714659	10.456102	12.204456	-246.905651	852.348010	6.854260	12.178885	38.156163	36.976172	45.000000	-37.274851	2068.991003	-2271.390351	146.534579	-129.506411	2176.282108	60.023163	15.540019	1.504262	8.269036	-45.000000	-35.756795	45.000000	-45.000000	-3498.630633	797.348612	19.833353	-61.074205	381.209184	123.057202	-1.626344	-10.863981	
9.2700	39.675681	10.483941	12.268181	-246.781059	852.036763	6.856967	12.240582	38.054622	36.938415	45.000000	-37.596875	2069.106732	-2271.289414	146.460910	-129.922180	2176.257930	59.643781	15.677087	1.535905	8.234599	-45.000000	-35.748080	45.000000	-45.000000	-3498.570963	797.301779	19.886462	-61.089611	381.194717	122.761465	-1.628397	-10.946857	
9.2800	39.625771	10.516766	12.335297	-246.637367	851.728326	6.858720	12.311440	37.948249	36.883935	45.000000	-37.872648	2069.225649	-2271.183393	146.397955	-130.324906	2176.233033	59.233160	15.823521	1.560200	8.185062	-45.000000	-35.748479	45.000000	-45.000000	-3498.481806	797.238184	19.977612	-61.126878	381.182339	122.473906	-1.655988	-11.087159	
9.2900	39.587391	10.550052	12.386977	-246.449384	851.423045	6.858596	12.354629	37.883453	36.856577	45.000000	-38.060544	2069.307805	-2271.130905	146.357747	-130.621132	2176.192324	58.757680	15.948213	1.589883	8.162780	-45.000000	-35.743273	45.000000	-45.000000	-3498.453021	797.194513	20.023222	-61.094409	381.160707	122.202908	-1.657976	-11.153327	
9.3000	39.551051	10.589841	12.427812	-246.217997	851.124648	6.856443	12.378153	37.847290	36.843900	45.000000	-38.178955	2069.367463	-2271.108824	146.338186	-130.844192	2176.142133	58.209001	16.065814	1.622263	8.152243	-45.000000	-35.735523	45.000000	-45.000000	-3498.456670	797.162799	20.054512	-61.019527	381.134053	121.949031	-1.647292	-11.183975	
9.3100	39.517348	10.630035	12.451809	-245.940825	850.836385	6.852042	12.392004	37.830038	36.832847	45.000000	-38.215590	2069.405031	-2271.112098	146.329193	-131.010732	2176.081990	57.571664	16.176987	1.653330	8.150884	-45.000000	-35.731279	45.000000	-45.000000	-3498.480996	797.136333	20.084618	-60.919834	381.109141	121.712893	-1.638971	-11.203110	
9.3200	39.485712	10.670199	12.462025	-245.622216	850.561714	6.845403	12.388888	37.829214	36.825183	45.000000	-38.197220	2069.429817	-2271.124529	146.324663	-131.142093	2176.016044	56.832431	16.289720	1.686654	8.156317	-45.000000	-35.730280	45.000000	-45.000000	-3498.521039	797.117782	20.109936	-60.796670	381.091822	121.491545	-1.626987	-11.203364	
9.3300	39.455285	10.708929	12.462178	-245.268545	850.303109	6.836539	12.383953	37.831719	36.807848	45.000000	-38.130851	2069.452747	-2271.131754	146.318738	-131.267365	2175.944366	55.987753	16.409577	1.719449	8.162819	-45.000000	-35.740997	45.000000	-45.000000	-3498.554448	797.096618	20.144375	-60.676059	381.086479	121.283389	-1.628994	-11.219153	
9.3400	39.429226	10.748223	12.455648	-244.884164	850.061475	6.825301	12.362896	37.843259	36.793861	45.000000	-38.043284	2069.477828	-2271.130660	146.314671	-131.388638	2175.866252	55.038130	16.538147	1.759136	8.175826	-45.000000	-35.759931	45.000000	-45.000000	-3498.592785	797.081499	20.170714	-60.544074	381.090134	121.088460	-1.627482	-11.220154	
9.3500	39.408663	10.788095	12.443171	-244.470724	849.836036	6.811284	12.339845	37.856213	36.772477	45.000000	-37.926039	2069.507274	-2271.122451	146.309771	-131.516582	2175.777850	53.989290	16.673803	1.803619	8.193697	-45.000000	-35.792146	45.000000	-45.000000	-3498.625379	797.064214	20.197918	-60.418183	381.101084	120.909227	-1.636490	-11.231464	
9.3600	39.395499	10.831198	12.426113	-244.026983	849.624710	6.793903	12.300106	37.874581	36.757275	45.000000	-37.793119	2069.541824	-2271.109248	146.310640	-131.648639	2175.678989	52.838775	16.818129	1.859272	8.220104	-45.000000	-35.829418	45.000000	-45.000000	-3498.661000	797.050015	20.219692	-60.287525	381.114723	120.748047	-1.642120	-11.232016	
9.3700	39.389732	10.881063	12.404901	-243.548825	849.424007	6.772549	12.259267	37.896154	36.750134	45.000000	-37.644421	2069.578516	-2271.098830	146.320876	-131.788508	2175.568913	51.584811	16.971207	1.926224	8.252184	-45.000000	-35.868095	45.000000	-45.000000	-3498.696014	797.036936	20.245883	-60.161330	381.126344	120.609783	-1.652226	-11.237005	
9.3800	39.394179	10.932678	12.378230	-243.030067	849.229177	6.746834	12.212085	37.922565	36.769749	45.000000	-37.488366	2069.607450	-2271.098597	146.343652	-131.934843	2175.447614	50.207941	17.134058	2.009527	8.288773	-45.000000	-35.892695	45.000000	-45.000000	-3498.736110	797.027361	20.277248	-60.033127	381.131796	120.498394	-1.657894	-11.234145	
9.3900	39.407652	10.989404	12.346039	-242.463072	849.034248	6.716752	12.168884	37.951412	36.800287	45.000000	-37.316479	2069.632640	-2271.107378	146.374754	-132.090139	2175.314562	48.692641	17.305828	2.109590	8.327709	-45.000000	-35.911700	45.000000	-45.000000	-3498.777218	797.019558	20.314464	-59.911486	381.136553	120.417819	-1.667468	-11.234603	
9.4000	39.432667	11.046025	12.307583	-241.839984	848.832512	6.682766	12.127519	37.984312	36.848953	45.000000	-37.130887	2069.646614	-2271.127285	146.406802	-132.250972	2175.166587	47.009371	17.487594	2.232146	8.366186	-45.000000	-35.920589	45.000000	-44.999999	-3498.823906	797.012271	20.352471	-59.792015	381.140721	120.372092	-1.676095	-11.231350	
9.4100	39.466234	11.110851	12.264644	-241.153492	848.616997	6.645733	12.098768	38.024886	36.905668	45.000000	-36.935023	2069.657268	-2271.152019	146.440386	-132.408681	2175.000494	45.137162	17.680222	2.381590	8.397305	-45.000000	-35.933365	45.000000	-44.999999	-3498.877016	797.010025	20.387033	-59.678074	381.150441	120.368640	-1.686674	-11.227176	
9.4200	39.509359	11.178585	12.214489	-240.397462	848.381152	6.606732	12.086875	38.074510	36.970329	45.000000	-36.728123	2069.658624	-2271.187970	146.463145	-132.558130	2174.811848	43.058398	17.880792	2.563121	8.416731	-45.000000	-35.950914	45.000000	-44.999998	-3498.941627	797.009788	20.412675	-59.571152	381.170577	120.414430	-1.698971	-11.220041	
9.4300	39.564851	11.241915	12.153092	-239.566919	848.119398	6.566842	12.139162	38.146169	37.063062	45.000000	-36.525188	2069.630499	-2271.249231	146.459854	-132.671555	2174.587220	40.672502	18.090645	2.787158	8.385682	-45.000000	-35.957833	45.000000	-44.999996	-3499.029088	797.019413	20.427657	-59.471466	381.203523	120.525662	-1.714791	-11.211463	
9.4400	39.633038	11.298448	12.080824	-238.657805	847.827531	6.526958	12.228556	38.232042	37.181937	45.000000	-36.319733	2069.566547	-2271.342003	146.423048	-132.750505	2174.327435	37.966726	18.306214	3.061180	8.333069	-45.000000	-35.950686	45.000000	-44.999992	-3499.137786	797.029464	20.438205	-59.378008	381.242103	120.711406	-1.730157	-11.198617	
9.4500	39.711944	11.353062	12.003434	-237.666781	847.502741	6.487720	12.365432	38.336202	37.336014	45.000000	-36.115803	2069.476486	-2271.460542	146.374976	-132.777521	2174.037258	34.909090	18.524585	3.388591	8.243675	-45.000000	-35.926088	45.000000	-44.999986	-3499.265052	797.046165	20.445298	-59.289780	381.290671	120.984831	-1.745842	-11.180817	
